<svg width="1188" height="500" viewBox="0 0 1188 500" fill="none" xmlns="http://www.w3.org/2000/svg">
<path d="M526.325 248.48V451H491.05V248.48H526.325ZM508.48 166.725C515.95 166.725 521.622 168.385 525.495 171.705C529.645 175.025 531.72 179.728 531.72 185.815V197.85C531.72 203.937 529.645 208.64 525.495 211.96C521.622 215.003 515.95 216.525 508.48 216.525C501.287 216.525 495.615 215.003 491.465 211.96C487.592 208.64 485.655 203.937 485.655 197.85V185.815C485.655 179.728 487.592 175.025 491.465 171.705C495.615 168.385 501.287 166.725 508.48 166.725Z" fill="white"/>
<path d="M658.963 162.575C668.093 162.575 676.808 163.543 685.108 165.48V193.7C676.808 192.317 668.231 191.625 659.378 191.625C650.801 191.625 644.023 194.392 639.043 199.925C634.34 205.458 631.988 213.897 631.988 225.24V248.48H673.488V277.53H631.988V451H596.713V277.53H567.663V248.48H596.713V227.315C596.99 205.735 602.385 189.55 612.898 178.76C623.411 167.97 638.766 162.575 658.963 162.575Z" fill="white"/>
<path d="M755.45 248.48H809.4V277.53H755.45V396.22C755.45 406.733 757.525 414.342 761.675 419.045C766.102 423.472 772.88 425.685 782.01 425.685C793.63 425.685 804.974 424.302 816.04 421.535L816.87 451C804.697 454.32 793.63 455.98 783.67 455.98C761.537 455.98 745.352 451.138 735.115 441.455C725.155 431.495 720.175 415.448 720.175 393.315V277.53H691.125V248.48H720.175L726.815 194.53H755.45V248.48Z" fill="white"/>
<path d="M920.575 243.5C943.815 243.5 961.522 249.863 973.695 262.59C985.868 275.317 991.955 293.715 991.955 317.785V360.53H885.3V385.015C885.3 399.125 888.62 409.362 895.26 415.725C902.177 421.812 912.967 424.855 927.63 424.855C942.017 424.855 960 422.642 981.58 418.215L982.41 448.925C956.68 453.628 938.282 455.98 927.215 455.98C899.825 455.98 880.043 450.032 867.87 438.135C855.973 426.238 850.025 407.84 850.025 382.94V317.785C850.025 293.715 855.835 275.317 867.455 262.59C879.352 249.863 897.058 243.5 920.575 243.5ZM920.575 272.965C909.785 272.965 901.208 276.423 894.845 283.34C888.482 289.98 885.3 299.663 885.3 312.39V332.31H956.68V313.635C956.68 300.355 953.36 290.257 946.72 283.34C940.357 276.423 931.642 272.965 920.575 272.965Z" fill="white"/>
<path d="M1128.19 243.5C1132.06 243.5 1135.1 243.777 1137.32 244.33V284.17C1133.17 283.34 1127.77 282.925 1121.13 282.925C1101.76 282.925 1086.41 292.608 1075.07 311.975V451H1039.79V248.48H1072.99V278.775C1080.46 267.432 1088.76 258.717 1097.89 252.63C1107.3 246.543 1117.4 243.5 1128.19 243.5Z" fill="white"/>
<path d="M450 450V250L250 250V251.63L250.288 251.342L448.658 449.712L448.37 450H450Z" fill="white"/>
<path fill-rule="evenodd" clip-rule="evenodd" d="M200 130H250H370H370.652L370.537 129.885L449.885 50.5369L450 50.6522V50H370H250H200C117.157 50 50 117.157 50 200V300C50 382.843 117.157 450 200 450H250H350H430V449.348L429.885 449.463L350.537 370.115L350.652 370H350H250H200C161.34 370 130 338.66 130 300V200C130 161.34 161.34 130 200 130Z" fill="white"/>
</svg>
