<svg width="1188" height="500" viewBox="0 0 1188 500" fill="none" xmlns="http://www.w3.org/2000/svg">
<path fill-rule="evenodd" clip-rule="evenodd" d="M250 130H200C161.34 130 130 161.34 130 200V300C130 338.66 161.34 370 200 370H250H350H350.652L350.537 370.115L429.885 449.463L430 449.348V450H350H250H200C117.157 450 50 382.843 50 300V200C50 117.157 117.157 50 200 50H250H370H450V50.6522L449.885 50.5369L370.537 129.885L370.652 130H370H250ZM685.108 165.48C676.808 163.543 668.093 162.575 658.963 162.575C638.766 162.575 623.411 167.97 612.898 178.76C602.385 189.55 596.99 205.735 596.713 227.315V248.48H567.663V277.53H596.713V451H631.988V277.53H673.488V248.48H631.988V225.24C631.988 213.897 634.34 205.458 639.043 199.925C644.023 194.392 650.801 191.625 659.378 191.625C668.231 191.625 676.808 192.317 685.108 193.7V165.48ZM526.325 451V248.48H491.05V451H526.325ZM525.495 171.705C521.622 168.385 515.95 166.725 508.48 166.725C501.287 166.725 495.615 168.385 491.465 171.705C487.592 175.025 485.655 179.728 485.655 185.815V197.85C485.655 203.937 487.592 208.64 491.465 211.96C495.615 215.003 501.287 216.525 508.48 216.525C515.95 216.525 521.622 215.003 525.495 211.96C529.645 208.64 531.72 203.937 531.72 197.85V185.815C531.72 179.728 529.645 175.025 525.495 171.705ZM755.45 248.48H809.4V277.53H755.45V396.22C755.45 406.733 757.525 414.342 761.675 419.045C766.102 423.472 772.88 425.685 782.01 425.685C793.63 425.685 804.974 424.302 816.04 421.535L816.87 451C804.697 454.32 793.63 455.98 783.67 455.98C761.537 455.98 745.352 451.138 735.115 441.455C725.155 431.495 720.175 415.448 720.175 393.315V277.53H691.125V248.48H720.175L726.815 194.53H755.45V248.48ZM973.695 262.59C961.522 249.863 943.815 243.5 920.575 243.5C897.058 243.5 879.352 249.863 867.455 262.59C855.835 275.317 850.025 293.715 850.025 317.785V382.94C850.025 407.84 855.973 426.238 867.87 438.135C880.043 450.032 899.825 455.98 927.215 455.98C938.282 455.98 956.68 453.628 982.41 448.925L981.58 418.215C960 422.642 942.017 424.855 927.63 424.855C912.967 424.855 902.177 421.812 895.26 415.725C888.62 409.362 885.3 399.125 885.3 385.015V360.53H991.955V317.785C991.955 293.715 985.868 275.317 973.695 262.59ZM894.845 283.34C901.208 276.423 909.785 272.965 920.575 272.965C931.642 272.965 940.357 276.423 946.72 283.34C953.36 290.257 956.68 300.355 956.68 313.635V332.31H885.3V312.39C885.3 299.663 888.482 289.98 894.845 283.34ZM1128.19 243.5C1132.06 243.5 1135.1 243.777 1137.32 244.33V284.17C1133.17 283.34 1127.77 282.925 1121.13 282.925C1101.76 282.925 1086.41 292.608 1075.07 311.975V451H1039.79V248.48H1072.99V278.775C1080.46 267.432 1088.76 258.717 1097.89 252.63C1107.3 246.543 1117.4 243.5 1128.19 243.5ZM450 450V250H250V251.63L250.288 251.342L448.658 449.712L448.37 450H450Z" fill="url(#paint0_linear)"/>
<defs>
<linearGradient id="paint0_linear" x1="450" y1="50" x2="50" y2="450" gradientUnits="userSpaceOnUse">
<stop stop-color="#F8BBD0"/>
<stop offset="1" stop-color="#2196F3"/>
</linearGradient>
</defs>
</svg>
