<svg width="500" height="500" viewBox="0 0 500 500" fill="none" xmlns="http://www.w3.org/2000/svg">
<path d="M450 450V250L250 250V251.63L250.288 251.342L448.658 449.712L448.37 450H450Z" fill="white"/>
<path fill-rule="evenodd" clip-rule="evenodd" d="M200 130H250H370H370.652L370.537 129.885L449.885 50.5369L450 50.6522V50H370H250H200C117.157 50 50 117.157 50 200V300C50 382.843 117.157 450 200 450H250H350H430V449.348L429.885 449.463L350.537 370.115L350.652 370H350H250H200C161.34 370 130 338.66 130 300V200C130 161.34 161.34 130 200 130Z" fill="white"/>
</svg>
