<svg width="500" height="500" viewBox="0 0 500 500" fill="none" xmlns="http://www.w3.org/2000/svg">
<rect width="500" height="500" fill="white"/>
<path d="M450 50H370V130H370.652L370.537 129.885L449.885 50.5369L450 50.6522V50Z" fill="black"/>
<path d="M250 50L370 50V130H250V50Z" fill="black"/>
<path d="M350 370V450H430V449.348L429.885 449.463L350.537 370.115L350.652 370H350Z" fill="black"/>
<path d="M250 370H350V450H250V370Z" fill="black"/>
<path d="M250 130H200C161.34 130 130 161.34 130 200V300C130 338.66 161.34 370 200 370H250V450H200C117.157 450 50 382.843 50 300V200C50 117.157 117.157 50 200 50H250V130Z" fill="black"/>
<path d="M450 450V250L250 250V251.63L250.288 251.342L448.658 449.712L448.37 450H450Z" fill="#2196F3"/>
</svg>
