<svg width="1096" height="406" viewBox="0 0 1096 406" fill="none" xmlns="http://www.w3.org/2000/svg">
<path d="M400 -1.19209e-06H320V80H320.652L320.537 79.8847L399.885 0.536913L400 0.652184V-1.19209e-06Z" fill="black"/>
<rect x="200" width="120" height="80" fill="black"/>
<path d="M300 320V400H380V399.348L379.885 399.463L300.537 320.115L300.652 320H300Z" fill="black"/>
<rect x="200" y="320" width="100" height="80" fill="black"/>
<path d="M400 400V200L200 200V201.63L200.288 201.342L398.658 399.712L398.37 400H400Z" fill="#2196F3"/>
<path fill-rule="evenodd" clip-rule="evenodd" d="M200 80H150C111.34 80 80 111.34 80 150V250C80 288.66 111.34 320 150 320H200V400H150C67.1573 400 0 332.843 0 250V150C0 67.1573 67.1573 0 150 0H200V80Z" fill="black"/>
<path d="M476.325 198.48V401H441.05V198.48H476.325ZM458.48 116.725C465.95 116.725 471.622 118.385 475.495 121.705C479.645 125.025 481.72 129.728 481.72 135.815V147.85C481.72 153.937 479.645 158.64 475.495 161.96C471.622 165.003 465.95 166.525 458.48 166.525C451.287 166.525 445.615 165.003 441.465 161.96C437.592 158.64 435.655 153.937 435.655 147.85V135.815C435.655 129.728 437.592 125.025 441.465 121.705C445.615 118.385 451.287 116.725 458.48 116.725ZM608.963 112.575C618.093 112.575 626.808 113.543 635.108 115.48V143.7C626.808 142.317 618.231 141.625 609.378 141.625C600.801 141.625 594.023 144.392 589.043 149.925C584.34 155.458 581.988 163.897 581.988 175.24V198.48H623.488V227.53H581.988V401H546.713V227.53H517.663V198.48H546.713V177.315C546.99 155.735 552.385 139.55 562.898 128.76C573.411 117.97 588.766 112.575 608.963 112.575ZM705.45 198.48H759.4V227.53H705.45V346.22C705.45 356.733 707.525 364.342 711.675 369.045C716.102 373.472 722.88 375.685 732.01 375.685C743.63 375.685 754.974 374.302 766.04 371.535L766.87 401C754.697 404.32 743.63 405.98 733.67 405.98C711.537 405.98 695.352 401.138 685.115 391.455C675.155 381.495 670.175 365.448 670.175 343.315V227.53H641.125V198.48H670.175L676.815 144.53H705.45V198.48ZM870.575 193.5C893.815 193.5 911.522 199.863 923.695 212.59C935.868 225.317 941.955 243.715 941.955 267.785V310.53H835.3V335.015C835.3 349.125 838.62 359.362 845.26 365.725C852.177 371.812 862.967 374.855 877.63 374.855C892.017 374.855 910 372.642 931.58 368.215L932.41 398.925C906.68 403.628 888.282 405.98 877.215 405.98C849.825 405.98 830.043 400.032 817.87 388.135C805.973 376.238 800.025 357.84 800.025 332.94V267.785C800.025 243.715 805.835 225.317 817.455 212.59C829.352 199.863 847.058 193.5 870.575 193.5ZM870.575 222.965C859.785 222.965 851.208 226.423 844.845 233.34C838.482 239.98 835.3 249.663 835.3 262.39V282.31H906.68V263.635C906.68 250.355 903.36 240.257 896.72 233.34C890.357 226.423 881.642 222.965 870.575 222.965ZM1078.19 193.5C1082.06 193.5 1085.1 193.777 1087.32 194.33V234.17C1083.17 233.34 1077.77 232.925 1071.13 232.925C1051.76 232.925 1036.41 242.608 1025.07 261.975V401H989.79V198.48H1022.99V228.775C1030.46 217.432 1038.76 208.717 1047.89 202.63C1057.3 196.543 1067.4 193.5 1078.19 193.5Z" fill="black"/>
</svg>
